PathFileType	4	(X/Y/Z)	/Users/itak/Documents/Research/Walk-IL/dataset/trc/00414_00012.trc
DataRate	CameraRate	NumFrames	NumMarkers	Units	OrigDataRate	OrigDataStartFrame	OrigNumFrames
100.000000	100.000000	4	53	mm	100.000000	108	433
Frame#	Time	RPSI			LPSI			L3			STRN			T10			C7			CLAV			RBAK			LBAK			LSHO			LUPA			LAEL			LAOL			LWTS			LWPS			LFRA			LIFD			LHPS			LHTS			RSHO			RUPA			RAEL			RAOL			RWTS			RWPS			RFRA			RIFD			RHTS			RHPS			RBHD			LFHD			RFHD			LBHD			LHIP			RHIP			RASI			LASI			LKNE			LTHI			LANK			LTIP			LTOE			LMT1			LMT5			LHEE			RKNE			RTHI			RANK			RTIP			RTOE			RMT1			RMT5			RHEE			
		X1	Y1	Z1	X2	Y2	Z2	X3	Y3	Z3	X4	Y4	Z4	X5	Y5	Z5	X6	Y6	Z6	X7	Y7	Z7	X8	Y8	Z8	X9	Y9	Z9	X10	Y10	Z10	X11	Y11	Z11	X12	Y12	Z12	X13	Y13	Z13	X14	Y14	Z14	X15	Y15	Z15	X16	Y16	Z16	X17	Y17	Z17	X18	Y18	Z18	X19	Y19	Z19	X20	Y20	Z20	X21	Y21	Z21	X22	Y22	Z22	X23	Y23	Z23	X24	Y24	Z24	X25	Y25	Z25	X26	Y26	Z26	X27	Y27	Z27	X28	Y28	Z28	X29	Y29	Z29	X30	Y30	Z30	X31	Y31	Z31	X32	Y32	Z32	X33	Y33	Z33	X34	Y34	Z34	X35	Y35	Z35	X36	Y36	Z36	X37	Y37	Z37	X38	Y38	Z38	X39	Y39	Z39	X40	Y40	Z40	X41	Y41	Z41	X42	Y42	Z42	X43	Y43	Z43	X44	Y44	Z44	X45	Y45	Z45	X46	Y46	Z46	X47	Y47	Z47	X48	Y48	Z48	X49	Y49	Z49	X50	Y50	Z50	X51	Y51	Z51	X52	Y52	Z52	X53	Y53	Z53	

109	1.08	-1239.051513671875	978.8298950195312	-400.3584289550781	-1255.031127929688	974.6306762695312	-531.2407836914062	-1240.837524414062	1055.664794921875	-471.0038146972656	-989.0971069335938	1186.757202148438	-480.0498657226562	-1241.872192382812	1160.252685546875	-483.6517639160156	-1176.932495117188	1402.5234375	-507.1002807617188	-1032.364624023438	1309.697265625	-486.3671569824219	-1235.167602539062	1264.820922851562	-434.1221008300781	-1184.72509765625	1359.923706054688	-610.3779296875	-1092.423583984375	1364.001220703125	-652.962158203125	-1114.664916992188	1248.870727539062	-723.0455932617188	-1108.208374023438	1048.794799804688	-739.2960205078125	-1176.917358398438	1036.246704101562	-690.5847778320312	-1040.370971679688	829.9971313476562	-666.314697265625	-1071.936157226562	816.9102783203125	-739.9368286132812	-1094.822875976562	943.1251831054688	-741.6041259765625	-1068.517456054688	651.1915283203125	-660.6398315429688	-1070.4453125	730.7477416992188	-725.66455078125	-1031.600952148438	728.41259765625	-673.9609375	-1129.201416015625	1384.950805664062	-343.76220703125	-1146.744995117188	1325.3427734375	-280.9975891113281	-1143.797241210938	1068.262573242188	-213.1226348876953	-1172.090698242188	1051.244750976562	-303.1147155761719	-999.28076171875	863.8118896484375	-242.3820953369141	-1036.90478515625	849.16943359375	-176.8925628662109	-1113.389770507812	1004.901428222656	-195.3434600830078	-975.717529296875	691.876708984375	-225.0597991943359	-963.7402954101562	764.7596435546875	-215.0165405273438	-1017.237426757812	764.485595703125	-170.2081451416016	-1151.619018554688	1582.063110351562	-425.9541625976562	-975.2489013671875	1585.821655273438	-519.9608154296875	-1020.007995605469	1588.057495117188	-405.1168823242188	-1110.163940429688	1578.100463867188	-583.0458374023438	-1182.019653320312	951.9702758789062	-653.3702392578125	-1142.931030273438	957.6385498046875	-296.0957946777344	-1022.447387695312	955.740478515625	-369.5337829589844	-1064.379516601562	938.28955078125	-629.251953125	-1202.830322265625	457.3504333496094	-619.4840698242188	-1187.495239257812	599.181884765625	-636.405029296875	-1358.799438476562	43.08296966552734	-550.2794189453125	-1285.7587890625	237.5287170410156	-596.6610717773438	-1144.677856445312	43.97187042236328	-489.0353698730469	-1222.562377929688	45.40536499023438	-459.7926635742188	-1233.307373046875	41.81138229370117	-565.9655151367188	-1397.46826171875	42.8602294921875	-494.0946350097656	-937.0413818359375	502.192626953125	-357.7067565917969	-1009.327209472656	751.021728515625	-319.98388671875	-988.1585083007812	77.44864654541016	-380.1116943359375	-924.5162963867188	374.1358337402344	-369.5664978027344	-814.5125732421875	69.91997528076172	-441.9573364257812	-886.0697631835938	65.55970001220703	-471.9228210449219	-905.6431274414062	65.33846282958984	-372.13671875	-1061.038818359375	66.26006317138672	-430.7713623046875	
110	1.09	-1233.81884765625	977.27001953125	-400.3375549316406	-1249.530029296875	973.2986450195312	-531.20556640625	-1235.17919921875	1054.51904296875	-470.8506469726562	-983.4259033203125	1185.08447265625	-479.5140686035156	-1236.105712890625	1158.916381835938	-483.7595520019531	-1170.79052734375	1401.219848632812	-506.8977355957031	-1026.616455078125	1308.045776367188	-485.9067993164062	-1229.525390625	1263.534912109375	-434.1596069335938	-1178.510009765625	1358.6435546875	-610.2473754882812	-1086.095947265625	1362.59619140625	-652.5907592773438	-1108.28076171875	1247.572265625	-722.85791015625	-1101.58447265625	1047.588012695312	-739.6056518554688	-1170.315673828125	1034.776489257812	-691.0191040039062	-1031.1572265625	829.9223022460938	-666.6052856445312	-1062.71728515625	816.2615966796875	-740.1016845703125	-1087.327514648438	942.1290893554688	-741.9346313476562	-1056.952514648438	650.7701416015625	-660.892822265625	-1060.0263671875	730.2445068359375	-725.815185546875	-1020.900390625	728.4625854492188	-674.2283325195312	-1123.534301757812	1383.358764648438	-343.4536743164062	-1141.547119140625	1323.769775390625	-280.847900390625	-1140.683837890625	1066.67236328125	-213.2305755615234	-1168.116821289062	1049.849853515625	-303.4208984375	-997.8506469726562	860.8565063476562	-240.8085021972656	-1036.431762695312	846.7908935546875	-175.4337158203125	-1111.035766601562	1003.139831542969	-194.9863433837891	-976.4842529296875	688.5494995117188	-221.7149810791016	-964.4912109375	761.2742919921875	-212.3896026611328	-1017.756652832031	762.0155639648438	-167.9723663330078	-1145.811157226562	1580.49267578125	-425.6132202148438	-969.1622924804688	1584.398193359375	-519.190185546875	-1014.248168945312	1586.488037109375	-404.4362182617188	-1103.849365234375	1576.582763671875	-582.6153564453125	-1176.338256835938	950.745361328125	-653.2452392578125	-1137.833374023438	955.9718627929688	-296.01318359375	-1017.169677734375	954.2000122070312	-369.2655639648438	-1058.716430664062	936.9390258789062	-629.0869140625	-1199.833740234375	456.5528564453125	-619.5054931640625	-1183.45849609375	598.35400390625	-636.4285888671875	-1358.776123046875	43.2587776184082	-550.205810546875	-1284.538330078125	237.3763427734375	-596.7510375976562	-1144.039672851562	43.9937629699707	-489.24609375	-1222.622802734375	45.13044738769531	-459.7117919921875	-1233.351928710938	41.95562362670898	-566.0100708007812	-1397.372680664062	43.04558181762695	-493.9574890136719	-930.8494262695312	500.9856872558594	-357.6685485839844	-1004.36083984375	749.8870239257812	-319.6695251464844	-965.69677734375	74.67717742919922	-384.8553466796875	-913.9505615234375	373.697998046875	-370.7156066894531	-791.763427734375	73.14576721191406	-446.5367736816406	-862.9371337890625	67.06791687011719	-476.5557250976562	-882.8203735351562	64.87035369873047	-376.9931335449219	-1037.823974609375	61.90419387817383	-436.1746826171875	
111	1.1	-1228.375854492188	975.5748901367188	-400.3589782714844	-1243.815063476562	971.8699951171875	-531.2261962890625	-1229.287353515625	1053.236450195312	-470.6947631835938	-977.6083984375	1183.372314453125	-478.9030151367188	-1230.154541015625	1157.423217773438	-483.8531494140625	-1164.607177734375	1399.799438476562	-506.6234436035156	-1020.758666992188	1306.328735351562	-485.3803100585938	-1223.790405273438	1262.121704101562	-434.122802734375	-1172.232788085938	1357.252197265625	-610.0391845703125	-1079.728515625	1361.095947265625	-652.1600952148438	-1101.837280273438	1246.144897460938	-722.57275390625	-1094.863525390625	1046.262451171875	-739.7994995117188	-1163.56787109375	1033.168212890625	-691.2528076171875	-1021.46630859375	829.905517578125	-666.7869873046875	-1053.208251953125	815.583251953125	-740.1192626953125	-1079.673950195312	941.0421142578125	-742.1429443359375	-1044.412841796875	650.354736328125	-661.1228637695312	-1049.025756835938	729.7638549804688	-725.8484497070312	-1009.521423339844	728.63916015625	-674.4813232421875	-1117.794189453125	1381.661010742188	-343.0705871582031	-1136.26123046875	1322.088256835938	-280.6292419433594	-1137.504028320312	1064.967407226562	-213.372314453125	-1164.046142578125	1048.3740234375	-303.7403869628906	-996.536865234375	857.71240234375	-239.2647857666016	-1036.089477539062	844.2564086914062	-174.0541229248047	-1108.664184570312	1001.247863769531	-194.6724090576172	-977.5616455078125	685.040283203125	-218.5048217773438	-965.3851928710938	757.592041015625	-209.8179321289062	-1018.528625488281	759.3950805664062	-165.8374633789062	-1139.888427734375	1578.81884765625	-425.2314453125	-962.9723510742188	1582.872314453125	-518.374267578125	-1008.391540527344	1584.835205078125	-403.7078857421875	-1097.391723632812	1574.904174804688	-582.1381225585938	-1170.353759765625	949.4610595703125	-653.1409301757812	-1132.641845703125	954.1558227539062	-295.9238891601562	-1011.656066894531	952.5730590820312	-368.9028625488281	-1052.775146484375	935.5267944335938	-628.842041015625	-1196.698486328125	455.7331848144531	-619.521484375	-1179.288452148438	597.4898681640625	-636.4539184570312	-1358.744506835938	43.43371963500977	-550.144287109375	-1283.25048828125	237.2177429199219	-596.8389892578125	-1143.407104492188	43.88908386230469	-489.4371948242188	-1222.602294921875	44.93518829345703	-459.6708679199219	-1233.369995117188	42.0297737121582	-566.0405883789062	-1397.259887695312	43.2611083984375	-493.8104858398438	-924.7124633789062	499.5383911132812	-357.5676574707031	-999.35205078125	748.5606689453125	-319.3413696289062	-943.1605224609375	72.33719635009766	-389.4985656738281	-903.4428100585938	373.1907043457031	-371.8056640625	-769.2337036132812	76.80353546142578	-451.1395874023438	-840.0357666015625	69.01671600341797	-481.1784973144531	-860.0264282226562	64.81832122802734	-381.8382873535156	-1014.432250976562	57.77299118041992	-441.8138122558594	
112	1.11	-1222.702758789062	973.7648315429688	-400.4151306152344	-1237.869262695312	970.3650512695312	-531.2904052734375	-1223.165771484375	1051.8017578125	-470.5481872558594	-971.6385498046875	1181.6318359375	-478.2189331054688	-1224.0068359375	1155.775390625	-483.9321594238281	-1158.389282226562	1398.26025390625	-506.279541015625	-1014.777526855469	1304.562377929688	-484.7830200195312	-1217.955932617188	1260.576293945312	-434.0199279785156	-1165.897338867188	1355.75	-609.7528686523438	-1073.323120117188	1359.509033203125	-651.6696166992188	-1095.332153320312	1244.600463867188	-722.193603515625	-1088.030639648438	1044.828125	-739.8619995117188	-1156.675170898438	1031.434204101562	-691.287841796875	-1011.337768554688	829.9691772460938	-666.84765625	-1043.38818359375	814.89892578125	-739.9807739257812	-1071.845458984375	939.881591796875	-742.21826171875	-1030.974487304688	649.9920043945312	-661.293212890625	-1037.4560546875	729.3329467773438	-725.7510986328125	-997.51220703125	728.9662475585938	-674.6801147460938	-1111.99267578125	1379.863403320312	-342.613525390625	-1130.907348632812	1320.304809570312	-280.3462829589844	-1134.255615234375	1063.157470703125	-213.5416107177734	-1159.882568359375	1046.817749023438	-304.0804443359375	-995.3381958007812	854.3966674804688	-237.7533874511719	-1035.854370117188	841.5811767578125	-172.7621307373047	-1106.266967773438	999.2362670898438	-194.4003143310547	-978.9478759765625	681.3754272460938	-215.4848785400391	-966.373291015625	753.732666015625	-207.3176574707031	-1019.527770996094	756.6354370117188	-163.8304138183594	-1133.848266601562	1577.056884765625	-424.8094177246094	-956.6875610351562	1581.243286132812	-517.512451171875	-1002.434265136719	1583.104614257812	-402.9319458007812	-1090.798950195312	1573.079833984375	-581.6099853515625	-1164.064697265625	948.1201782226562	-653.0518798828125	-1127.297485351562	952.2111206054688	-295.810546875	-1005.892944335938	950.869873046875	-368.4502868652344	-1046.554565429688	934.0514526367188	-628.5161743164062	-1193.446044921875	454.8938293457031	-619.5281982421875	-1174.9970703125	596.5899047851562	-636.4755859375	-1358.698120117188	43.60820007324219	-550.0918579101562	-1281.896606445312	237.0550231933594	-596.9193725585938	-1142.795654296875	43.67130661010742	-489.6084594726562	-1222.522338867188	44.80826950073242	-459.655517578125	-1233.355224609375	42.02409744262695	-566.0596923828125	-1397.134033203125	43.5193977355957	-493.6615295410156	-918.6018676757812	497.8902282714844	-357.4237976074219	-994.2405395507812	747.0632934570312	-319.0214538574219	-920.6845703125	70.45991516113281	-393.9806213378906	-893.0143432617188	372.6323547363281	-372.810546875	-747.0089111328125	80.86996459960938	-455.5733032226562	-817.4530639648438	71.4051513671875	-485.6671142578125	-837.4217529296875	65.21446228027344	-386.5090942382812	-991.0446166992188	53.99671936035156	-447.4501647949219	
